<svg width="60" height="58" viewBox="0 0 60 58" fill="none" xmlns="http://www.w3.org/2000/svg">
<path fill-rule="evenodd" clip-rule="evenodd" d="M0 29.2544C0 21.6366 3.16071 14.3307 8.7868 8.94407C14.4129 3.55743 22.0435 0.53125 30 0.53125C37.9565 0.53125 45.5871 3.55743 51.2132 8.94407C56.8393 14.3307 60 21.6366 60 29.2544C60 36.8723 56.8393 44.1781 51.2132 49.5647C45.5871 54.9514 37.9565 57.9776 30 57.9776C22.0435 57.9776 14.4129 54.9514 8.7868 49.5647C3.16071 44.1781 0 36.8723 0 29.2544ZM30 4.65129C25.0192 4.65145 20.1459 6.03749 15.9728 8.6408C11.7997 11.2441 8.50673 14.9525 6.4945 19.3147C4.48228 23.677 3.83752 28.5051 4.63867 33.2118C5.43983 37.9185 7.65235 42.3008 11.0071 45.8256C13.0438 42.7713 15.8517 40.2579 19.1713 38.5175C22.491 36.7771 26.2152 35.8659 30 35.8681C37.9813 35.8681 44.9932 39.8407 48.9929 45.8256C52.3476 42.3008 54.5602 37.9185 55.3613 33.2118C56.1625 28.5051 55.5177 23.677 53.5055 19.3147C51.4933 14.9525 48.2003 11.2441 44.0272 8.6408C39.8541 6.03749 34.9808 4.65145 30 4.65129ZM45.7723 48.6793C44.1694 46.0343 41.8686 43.8391 39.1004 42.3138C36.3322 40.7884 33.1939 39.9864 30 39.9882C26.8061 39.9864 23.6678 40.7884 20.8996 42.3138C18.1314 43.8391 15.8306 46.0343 14.2277 48.6793C18.7336 52.0433 24.2861 53.8662 30 53.8575C35.9429 53.8575 41.4148 51.9233 45.7723 48.6793ZM19.3553 24.9392C19.3553 22.2362 20.4768 19.6439 22.473 17.7326C24.4693 15.8213 27.1768 14.7475 30 14.7475C32.8232 14.7475 35.5307 15.8213 37.527 17.7326C39.5232 19.6439 40.6447 22.2362 40.6447 24.9392C40.6447 27.6422 39.5232 30.2345 37.527 32.1458C35.5307 34.0571 32.8232 35.1309 30 35.1309C27.1768 35.1309 24.4693 34.0571 22.473 32.1458C20.4768 30.2345 19.3553 27.6422 19.3553 24.9392ZM30 18.8676C29.1672 18.8676 28.3426 19.0246 27.5732 19.3298C26.8038 19.6349 26.1047 20.0821 25.5159 20.6459C24.927 21.2097 24.4599 21.8791 24.1412 22.6157C23.8225 23.3523 23.6585 24.1419 23.6585 24.9392C23.6585 25.7365 23.8225 26.5261 24.1412 27.2627C24.4599 27.9994 24.927 28.6687 25.5159 29.2325C26.1047 29.7963 26.8038 30.2435 27.5732 30.5487C28.3426 30.8538 29.1672 31.0108 30 31.0108C31.6819 31.0108 33.2949 30.3712 34.4841 29.2325C35.6734 28.0938 36.3415 26.5495 36.3415 24.9392C36.3415 23.3289 35.6734 21.7846 34.4841 20.6459C33.2949 19.5073 31.6819 18.8676 30 18.8676Z" fill="white"/>
</svg>
